<svg width="223" height="186" viewBox="0 0 223 186" fill="none" xmlns="http://www.w3.org/2000/svg">
<path d="M97.62 169.62C97.62 169.62 99.9825 171.832 102.533 170.782C105.083 169.732 106.958 171.81 105.075 173.557C103.193 175.305 96.075 175.387 96.075 175.387L93.9675 170.79L97.62 169.62Z" fill="#FF7A00"/>
<path d="M57.8701 168.593C57.8701 168.593 56.7076 171.593 58.6201 173.588C60.5326 175.583 59.3701 178.088 57.0076 176.985C54.6451 175.883 51.9451 169.29 51.9451 169.29L55.4026 165.622L57.8701 168.593Z" fill="#FF7A00"/>
<path opacity="0.3" d="M69.075 185.19C107.224 185.19 138.15 180.801 138.15 175.387C138.15 169.974 107.224 165.585 69.075 165.585C30.9259 165.585 0 169.974 0 175.387C0 180.801 30.9259 185.19 69.075 185.19Z" fill="#AFAFAF"/>
<path d="M222.263 0H104.43V135.84H222.263V0Z" fill="#E6E6E6"/>
<path d="M207 28.3425H122.175V53.34H207V28.3425Z" fill="#24285B"/>
<path d="M113.048 7.42499H123.758" stroke="#A8A8A8" stroke-width="2.03" stroke-miterlimit="10"/>
<path d="M113.048 11.61H123.758" stroke="#A8A8A8" stroke-width="2.03" stroke-miterlimit="10"/>
<path d="M113.048 15.795H123.758" stroke="#A8A8A8" stroke-width="2.03" stroke-miterlimit="10"/>
<path d="M207 7.42499H138.15V16.53H207V7.42499Z" fill="white"/>
<path d="M137.61 49.95C142.577 49.95 146.603 45.9239 146.603 40.9575C146.603 35.9911 142.577 31.965 137.61 31.965C132.644 31.965 128.618 35.9911 128.618 40.9575C128.618 45.9239 132.644 49.95 137.61 49.95Z" fill="#FF7A00"/>
<path d="M134.295 41.0475L136.583 44.385L141.338 38.2275" stroke="white" stroke-width="4.06" stroke-linecap="round" stroke-linejoin="round"/>
<path opacity="0.17" d="M189.128 35.355H153.39V39.315H189.128V35.355Z" fill="white"/>
<path opacity="0.17" d="M175.785 43.275H153.39V47.235H175.785V43.275Z" fill="white"/>
<path d="M207 60.6075H122.175V85.605H207V60.6075Z" fill="#24285B"/>
<path opacity="0.17" d="M137.61 82.2075C142.577 82.2075 146.603 78.1814 146.603 73.215C146.603 68.2486 142.577 64.2225 137.61 64.2225C132.644 64.2225 128.618 68.2486 128.618 73.215C128.618 78.1814 132.644 82.2075 137.61 82.2075Z" fill="white"/>
<path opacity="0.17" d="M189.128 67.62H153.39V71.58H189.128V67.62Z" fill="white"/>
<path opacity="0.17" d="M175.785 75.54H153.39V79.5H175.785V75.54Z" fill="white"/>
<path d="M207 92.8725H122.175V117.87H207V92.8725Z" fill="#24285B"/>
<path opacity="0.17" d="M137.61 114.472C142.577 114.472 146.603 110.446 146.603 105.48C146.603 100.514 142.577 96.4875 137.61 96.4875C132.644 96.4875 128.618 100.514 128.618 105.48C128.618 110.446 132.644 114.472 137.61 114.472Z" fill="white"/>
<path opacity="0.17" d="M189.128 99.885H153.39V103.845H189.128V99.885Z" fill="white"/>
<path opacity="0.17" d="M175.785 107.797H153.39V111.757H175.785V107.797Z" fill="white"/>
<path d="M51.5326 111.817C51.5326 111.817 49.0576 121.68 53.3776 126.54C57.6976 131.4 64.3576 154.372 53.3776 165.862L57.7201 169.95C57.7201 169.95 76.7326 160.245 71.3101 125.265L84.8851 111.832L51.5326 111.817Z" fill="#24285B"/>
<path opacity="0.09" d="M131.003 69.3975C131.003 69.3975 137.663 80.58 127.958 83.865C127.958 83.865 124.958 117.405 104.43 123.277V111.817L120.555 77.4825L131.003 69.3975Z" fill="black"/>
<path d="M84.8852 55.68C84.8852 55.68 98.3177 59.1075 98.3852 70.23C98.4527 81.3525 92.4227 100.815 101.063 102.405C109.703 103.995 114.87 79.9575 114.87 79.9575L121.058 82.44C121.058 82.44 114.503 123.502 91.8602 116.73C69.2177 109.957 84.8852 55.68 84.8852 55.68Z" fill="#FF7A00"/>
<path opacity="0.44" d="M84.8852 55.68C84.8852 55.68 98.3177 59.1075 98.3852 70.23C98.4527 81.3525 92.4227 100.815 101.063 102.405C109.703 103.995 114.87 79.9575 114.87 79.9575L121.058 82.44C121.058 82.44 114.503 123.502 91.8602 116.73C69.2177 109.957 84.8852 55.68 84.8852 55.68Z" fill="white"/>
<path d="M72.8026 37.4175L68.7151 51.8475L76.8226 53.535L76.5451 42.36L72.8026 37.4175Z" fill="#F4A28C"/>
<path opacity="0.31" d="M76.7102 44.79C75.7177 44.4088 74.8577 43.7468 74.2352 42.885C74.2352 42.885 74.0327 45.6225 76.7027 48.6675L76.7102 44.79Z" fill="#CE8172"/>
<path d="M68.7152 51.8475L73.5227 52.845C73.5227 52.845 95.5352 55.2225 96.4277 67.6425C97.3202 80.0625 84.8852 111.817 84.8852 111.817H51.5327C51.5327 111.817 24.8102 48.54 68.7152 51.8475Z" fill="#FF7A00"/>
<path opacity="0.09" d="M65.8276 63.36C65.8276 63.36 68.5201 71.1225 61.4701 76.185C54.4201 81.2475 57.8551 100.29 65.5576 103.395C73.2601 106.5 60.7351 113.062 55.3876 110.37C50.0401 107.677 49.2901 105.87 49.2901 105.87C49.2901 105.87 44.3326 91.53 43.8076 82.3725C43.2826 73.215 65.8276 63.36 65.8276 63.36Z" fill="black"/>
<path d="M71.069 102.271L51.5251 97.4486L45.0896 123.531L64.6335 128.354L71.069 102.271Z" fill="#CE8172"/>
<path opacity="0.09" d="M63.0226 114.255C63.0226 114.255 64.2751 117.33 59.9326 117.967C55.5901 118.605 46.4326 117.967 46.4326 117.967L47.9326 111.817L63.0226 114.255Z" fill="black"/>
<path d="M65.8277 63.36C65.8277 56.5275 58.9127 51.8625 52.4177 53.9925C46.7702 55.845 39.8852 59.2425 35.7002 65.5575C27.6527 77.625 9.27022 112.89 55.9502 114.255L57.3227 109.058C57.3227 109.058 29.3177 101.31 41.6777 84.9225C51.3077 72.18 65.8577 73.035 65.8277 63.36Z" fill="#FF7A00"/>
<path opacity="0.44" d="M65.8277 63.36C65.8277 56.5275 58.9127 51.8625 52.4177 53.9925C46.7702 55.845 39.8852 59.2425 35.7002 65.5575C27.6527 77.625 9.27022 112.89 55.9502 114.255L57.3227 109.058C57.3227 109.058 29.3177 101.31 41.6777 84.9225C51.3077 72.18 65.8577 73.035 65.8277 63.36Z" fill="white"/>
<path d="M116.34 80.5425C116.34 80.5425 116.685 74.595 119.07 72.9075C121.455 71.22 121.058 75.495 121.058 75.495C121.058 75.495 123.443 72.7125 125.43 73.995C127.418 75.2775 121.058 82.44 121.058 82.44L116.34 80.5425Z" fill="#F4A28C"/>
<path d="M81.2026 37.845C81.2026 37.845 80.7976 42.3975 79.5076 45.255C79.3822 45.5304 79.2037 45.7784 78.9824 45.9848C78.761 46.1912 78.5012 46.3519 78.2177 46.4578C77.9342 46.5637 77.6326 46.6126 77.3301 46.6019C77.0277 46.5911 76.7303 46.5208 76.4551 46.395C75.5447 46.0413 74.7552 45.4333 74.1807 44.6434C73.6063 43.8535 73.2711 42.9151 73.2151 41.94L72.5701 37.7625C72.5275 36.913 72.75 36.0712 73.2069 35.3536C73.6637 34.6361 74.3323 34.0783 75.1201 33.7575C77.9851 32.3775 81.5926 35.0775 81.2026 37.845Z" fill="#F4A28C"/>
<path d="M80.7975 40.7025L81.7425 42.66C81.7911 42.7709 81.8122 42.8919 81.8039 43.0127C81.7955 43.1335 81.7581 43.2505 81.6947 43.3537C81.6313 43.4569 81.5439 43.5432 81.4399 43.6052C81.3359 43.6673 81.2184 43.7032 81.0975 43.71H79.3125L80.7975 40.7025Z" fill="#F4A28C"/>
<path d="M122.01 78.39C126.977 78.39 131.003 74.3639 131.003 69.3975C131.003 64.4311 126.977 60.405 122.01 60.405C117.044 60.405 113.018 64.4311 113.018 69.3975C113.018 74.3639 117.044 78.39 122.01 78.39Z" fill="#FF7A00"/>
<path d="M118.703 69.4875L120.99 72.8325L125.738 66.675" stroke="white" stroke-width="4.06" stroke-linecap="round" stroke-linejoin="round"/>
<path d="M84.8851 111.817L98.8276 169.935L91.8601 170.955C91.8601 170.955 77.9176 131.122 68.7151 122.955L84.8851 111.817Z" fill="#24285B"/>
<path d="M57.1052 109.778C57.1052 109.778 62.0852 108.983 63.7502 112.425C65.4152 115.868 55.9277 114.255 55.9277 114.255L57.1052 109.778Z" fill="#F4A28C"/>
<path opacity="0.58" d="M20.3252 166.92C20.3252 166.92 14.7377 165.42 13.5227 160.17C13.5227 160.17 22.1777 158.415 22.4252 167.355L20.3252 166.92Z" fill="#FF7A00"/>
<path opacity="0.73" d="M21.0077 166.372C21.0077 166.372 17.1077 160.2 20.5427 154.425C20.5427 154.425 27.1202 158.61 24.1952 166.38L21.0077 166.372Z" fill="#FF7A00"/>
<path d="M22.0127 166.372C22.0127 166.372 24.0752 159.855 30.3152 158.625C30.3152 158.625 31.4777 162.855 26.2727 166.387L22.0127 166.372Z" fill="#FF7A00"/>
<path d="M17.9626 166.23L19.0951 173.977L26.2276 174.007L27.2776 166.267L17.9626 166.23Z" fill="#24285B"/>
<path d="M71.4451 42.2175L74.2351 41.535L75.9301 40.7025C75.9301 40.7025 77.1526 40.6275 76.6801 37.6575C76.6801 37.6575 82.6801 39.7275 83.4301 36.1575C84.2926 32.28 79.8226 30.555 76.6801 30.9075C75.7573 31.0191 74.8828 31.3816 74.1516 31.9555C73.4203 32.5293 72.8604 33.2927 72.5326 34.1625C72.5326 34.1625 67.5826 33.3675 71.4451 42.2175Z" fill="#24285B"/>
<path d="M75.7277 40.845C75.7277 40.845 76.0052 39.105 74.6777 39.0075C73.3502 38.91 72.9377 41.4225 74.6777 41.97L75.7277 40.845Z" fill="#F4A28C"/>
</svg>
