<svg width="24" height="24" viewBox="0 0 24 24" fill="none" xmlns="http://www.w3.org/2000/svg">
<path d="M11.9683 21.0163C16.9453 21.0163 20.98 16.9817 20.98 12.0047C20.98 7.02766 16.9453 2.993 11.9683 2.993C6.99133 2.993 2.95667 7.02766 2.95667 12.0047C2.95667 16.9817 6.99133 21.0163 11.9683 21.0163Z" fill="#FCEA2B"/>
<path d="M12.002 19.3027C16.0283 19.3027 19.2923 16.0387 19.2923 12.0123C19.2923 7.98599 16.0283 4.722 12.002 4.722C7.97566 4.722 4.71167 7.98599 4.71167 12.0123C4.71167 16.0387 7.97566 19.3027 12.002 19.3027Z" fill="white"/>
<path d="M18.37 8.46C19.2295 10.001 19.5008 11.8015 19.1334 13.5274C18.766 15.2532 17.7849 16.7872 16.3722 17.8445C14.9596 18.9018 13.2113 19.4106 11.4519 19.2766C9.69243 19.1426 8.0414 18.3747 6.8052 17.1156C5.56901 15.8565 4.83161 14.1917 4.7299 12.4301C4.62818 10.6685 5.16905 8.92984 6.25211 7.53682C7.33517 6.1438 8.88686 5.19104 10.6192 4.85539C12.3515 4.51973 14.1467 4.82398 15.6717 5.71167" stroke="black" stroke-linecap="round" stroke-linejoin="round"/>
<path d="M20.98 11.999C20.9798 14.1431 20.2154 16.2169 18.824 17.8482C17.4327 19.4796 15.5054 20.5616 13.3883 20.9002C11.2711 21.2388 9.10251 20.8117 7.27181 19.6956C5.44111 18.5795 4.06812 16.8475 3.39925 14.8104C2.73038 12.7733 2.80943 10.5645 3.62221 8.58044C4.43499 6.59637 5.92829 4.96694 7.83409 3.98457C9.73989 3.0022 11.9334 2.73123 14.021 3.22028C16.1086 3.70932 17.9535 4.92638 19.2247 6.653" stroke="black" stroke-linecap="round" stroke-linejoin="round"/>
<path d="M15.798 7.19267L19.4774 6.806L19.0907 3.12667M16.6584 12.118H11.9637V6.17333M11.9637 17.9703V16.6887M7.04769 12.118H6.02869" stroke="black" stroke-linecap="round" stroke-linejoin="round"/>
<path d="M11.9637 13.3637C12.6516 13.3637 13.2094 12.806 13.2094 12.118C13.2094 11.43 12.6516 10.8723 11.9637 10.8723C11.2757 10.8723 10.718 11.43 10.718 12.118C10.718 12.806 11.2757 13.3637 11.9637 13.3637Z" fill="black"/>
<path d="M16.2313 16.4723C16.5038 16.4723 16.7246 16.2515 16.7246 15.979C16.7246 15.7065 16.5038 15.4857 16.2313 15.4857C15.9588 15.4857 15.738 15.7065 15.738 15.979C15.738 16.2515 15.9588 16.4723 16.2313 16.4723Z" fill="black"/>
<path d="M7.69566 8.73233C7.96813 8.73233 8.189 8.51146 8.189 8.239C8.189 7.96654 7.96813 7.74567 7.69566 7.74567C7.4232 7.74567 7.20233 7.96654 7.20233 8.239C7.20233 8.51146 7.4232 8.73233 7.69566 8.73233Z" fill="black"/>
<path d="M7.69566 16.4723C7.96813 16.4723 8.189 16.2515 8.189 15.979C8.189 15.7065 7.96813 15.4857 7.69566 15.4857C7.4232 15.4857 7.20233 15.7065 7.20233 15.979C7.20233 16.2515 7.4232 16.4723 7.69566 16.4723Z" fill="black"/>
</svg>
