<svg width="100" height="171" viewBox="0 0 100 171" fill="none" xmlns="http://www.w3.org/2000/svg">
<path d="M15.8033 42.7548C13.442 39.8011 8.26101 42.4183 6.41693 44.8779C4.57166 47.3372 4.12603 50.6907 6.41693 52.9819C8.70783 55.2731 11.2215 57.7868 14.3502 55.4956C17.4805 53.2044 18.9334 46.6658 15.8033 42.7548Z" fill="#DB9D7D"/>
<path d="M5.3017 76.2099C5.3017 76.2099 12.1155 73.9373 13.8486 73.5464C15.5806 73.1552 9.6018 82.5443 9.6018 82.5443L5.3017 76.2099Z" fill="#DB9D7D"/>
<mask id="mask0_120_265" style="mask-type:luminance" maskUnits="userSpaceOnUse" x="11" y="48" width="89" height="123">
<path d="M11.355 48.8448H100V170.338H11.355V48.8448Z" fill="white"/>
</mask>
<g mask="url(#mask0_120_265)">
<path d="M100.009 167.209C86.478 171.144 72.2988 171.61 57.2082 167.209C57.2082 167.209 53.4502 150.087 42.9041 145.526C28.4317 139.266 9.54583 101.88 12.2276 98.5265C14.9079 95.1759 20.1017 93.7775 23.7336 97.1251C23.4389 96.8389 10.3951 84.1212 11.4458 80.3079C12.5064 76.4528 18.2061 72.4282 22.062 76.0057C25.9165 79.582 25.1909 75.2784 25.1909 75.2784C25.1909 75.2784 17.7031 71.3674 16.5866 68.0698C15.4684 64.7725 16.8654 58.6248 21.335 58.178C25.8058 57.7309 27.2028 59.2962 27.2028 59.2962L71.6807 95.1733C71.1776 90.3681 75.5351 73.8267 75.5351 73.8267C70.9536 69.2443 71.5126 63.0406 71.9594 56.5579C72.2914 51.7456 74.6542 49.8583 76.9265 49.2058C77.7139 48.9786 78.4915 48.901 79.1683 48.901C79.1683 48.901 82.7298 50.7653 83.0156 60.3555C83.0186 60.4491 83.0215 60.5423 83.023 60.6373C83.023 60.6373 88.5502 67.344 89.0015 69.02C89.7102 71.6532 88.7227 85.8431 91.0222 93.1437C91.7481 95.4476 91.965 97.8826 91.6919 100.281C91.406 102.8 90.7763 106.188 89.4486 110.319C86.3759 119.875 87.5501 126.86 86.3759 130.661C84.2791 137.448 100.009 167.209 100.009 167.209Z" fill="#DB9D7D"/>
</g>
<path d="M66.2612 130.465C66.2351 130.465 66.2079 130.461 66.1836 130.452C66.1174 130.432 59.5278 128.256 56.6638 122.541C54.9951 119.212 54.8901 115.354 56.356 111.075C56.4007 110.944 56.5442 110.875 56.675 110.918C56.8058 110.964 56.8762 111.107 56.8318 111.239C55.4118 115.383 55.5068 119.108 57.1106 122.312C59.8785 127.836 66.2727 129.953 66.3372 129.975C66.4695 130.017 66.5414 130.159 66.4997 130.29C66.465 130.398 66.3659 130.465 66.2612 130.465Z" fill="#B76B44"/>
<path d="M83.0156 60.3556C82.1001 60.344 81.1748 60.2836 80.3971 60.1342C78.4427 59.7605 77.3546 52.7617 76.9265 49.2058C77.7139 48.9786 78.4915 48.9011 79.1682 48.9011C79.1682 48.9011 82.7298 50.7653 83.0156 60.3556Z" fill="#DA8F69"/>
<path d="M76.5066 74.2276C75.8328 74.2276 75.3801 74.0767 75.3425 74.0637C75.2105 74.0193 75.1413 73.8755 75.186 73.7447C75.2318 73.6139 75.3742 73.5435 75.505 73.5881C75.5754 73.6109 77.2038 74.14 78.9126 72.9484C79.0262 72.8694 79.1828 72.8981 79.2618 73.0117C79.3408 73.1251 79.3136 73.2819 79.1999 73.3609C78.2039 74.0551 77.2283 74.2276 76.5066 74.2276Z" fill="#B76B44"/>
<path d="M65.4205 123.155H16.8553C12.949 123.155 9.78284 119.988 9.78284 116.081V7.07333C9.78284 3.16648 12.949 0 16.8553 0H65.4205C69.3267 0 72.4926 3.16648 72.4926 7.07333V116.081C72.4926 119.988 69.3267 123.155 65.4205 123.155Z" fill="#423E52"/>
<path d="M11.7 115.646V7.50889C11.7 4.74484 13.9406 2.50394 16.7044 2.50394H65.5726C68.3363 2.50394 70.5754 4.74484 70.5754 7.50889V115.646C70.5754 118.41 68.3363 120.651 65.5726 120.651H16.7044C13.9406 120.651 11.7 118.41 11.7 115.646Z" fill="white"/>
<mask id="mask1_120_265" style="mask-type:luminance" maskUnits="userSpaceOnUse" x="28" y="83" width="27" height="25">
<path d="M28.3991 83.2362H54.0032V107.78H28.3991V83.2362Z" fill="white"/>
</mask>
<g mask="url(#mask1_120_265)">
<mask id="mask2_120_265" style="mask-type:luminance" maskUnits="userSpaceOnUse" x="11" y="2" width="60" height="119">
<path d="M11.7 115.646V7.50892C11.7 4.74487 13.9406 2.50397 16.7044 2.50397H65.5726C68.3363 2.50397 70.5754 4.74487 70.5754 7.50892V115.646C70.5754 118.41 68.3363 120.651 65.5726 120.651H16.7044C13.9406 120.651 11.7 118.41 11.7 115.646Z" fill="white"/>
</mask>
<g mask="url(#mask2_120_265)">
<path d="M53.9428 95.5154C53.9428 102.264 48.239 107.734 41.2038 107.734C34.169 107.734 28.4648 102.264 28.4648 95.5154C28.4648 88.7655 34.169 83.2948 41.2038 83.2948C48.239 83.2948 53.9428 88.7655 53.9428 95.5154Z" fill="#1E700A"/>
</g>
</g>
<mask id="mask3_120_265" style="mask-type:luminance" maskUnits="userSpaceOnUse" x="33" y="89" width="17" height="15">
<path d="M33.929 89.9023H49.5339V103.31H33.929V89.9023Z" fill="white"/>
</mask>
<g mask="url(#mask3_120_265)">
<mask id="mask4_120_265" style="mask-type:luminance" maskUnits="userSpaceOnUse" x="11" y="2" width="60" height="119">
<path d="M11.7 115.646V7.50891C11.7 4.74485 13.9406 2.50396 16.7044 2.50396H65.5726C68.3363 2.50396 70.5754 4.74485 70.5754 7.50891V115.646C70.5754 118.41 68.3363 120.651 65.5726 120.651H16.7044C13.9406 120.651 11.7 118.41 11.7 115.646Z" fill="white"/>
</mask>
<g mask="url(#mask4_120_265)">
<path d="M40.2798 103.271C39.9824 103.271 39.7022 103.133 39.5282 102.901L34.1158 95.6503C33.8196 95.2523 33.9146 94.699 34.33 94.4143C34.7437 94.1296 35.3216 94.2202 35.619 94.6196L40.2656 100.844L47.8366 90.3264C48.1269 89.9224 48.7016 89.8218 49.1215 90.0991C49.5411 90.3781 49.6473 90.93 49.357 91.3324L41.04 102.889C40.8704 103.126 40.5887 103.268 40.2884 103.271C40.2857 103.271 40.2828 103.271 40.2798 103.271Z" fill="white"/>
</g>
</g>
<path d="M16.2445 85.0512C16.2371 85.2539 16.2199 85.4608 16.1942 85.6735C15.74 89.4582 14.6966 90.9874 13.4807 91.5798C12.9016 91.863 12.282 91.9334 11.6683 91.9334C9.7686 91.9334 4.12597 90.5909 1.49892 86.3446C-1.12665 82.0972 4.46094 74.7206 7.0868 76.1178C11.2301 78.3215 16.4498 79.9569 16.2445 85.0512Z" fill="#DB9D7D"/>
<path d="M11.0475 90.0145C11.0475 90.0145 6.83533 88.6604 6.26749 86.0946C5.69994 83.5276 6.48883 81.5711 8.39742 81.4604C10.3075 81.3486 14.077 84.3698 14.077 84.3698C14.077 84.3698 10.5173 85.7383 11.0475 90.0145Z" fill="#DA8F69"/>
<path d="M18.7594 102.8C18.6301 104.919 17.4947 107.929 14.649 108.298C14.2655 108.347 13.9003 108.38 13.5541 108.398C10.4699 108.555 8.76106 107.45 6.31481 105.502C3.59307 103.335 0.160863 101.002 2.49497 96.4395C3.27379 94.9173 5.51882 93.4268 8.53972 94.0003C11.5606 94.5738 17.8714 99.4207 18.5727 101.094C18.7307 101.472 18.8011 102.086 18.7594 102.8Z" fill="#DB9D7D"/>
<path d="M12.591 106.941C12.591 106.941 7.79671 104.949 7.8701 101.554C7.94319 98.1602 12.2965 98.4546 14.6579 99.7829C17.0189 101.111 17.535 101.554 17.535 101.554C17.535 101.554 13.9939 102.439 12.591 106.941Z" fill="#DA8F69"/>
<path d="M10.9428 59.1278C8.57999 56.1756 3.39898 58.7932 1.5549 61.2524C-0.288889 63.7102 -0.735707 67.0637 1.5549 69.3549C3.8458 71.6461 6.361 74.1616 9.4896 71.8704C12.6185 69.5792 14.0714 63.0406 10.9428 59.1278Z" fill="#DB9D7D"/>
<path d="M5.30613 69.2774C5.30613 69.2774 3.37889 65.0471 8.15895 62.1393C8.15895 62.1393 6.20302 61.6448 4.89659 63.0045C3.59017 64.363 2.50923 66.6512 5.30613 69.2774Z" fill="#DA8F69"/>
<path d="M48.3467 5.09845H32.8481C31.5216 5.09845 30.4465 4.02312 30.4465 2.6951C30.4465 1.36826 31.5216 0.293236 32.8481 0.293236H48.3467C49.6733 0.293236 50.7495 1.36826 50.7495 2.6951C50.7495 4.02312 49.6733 5.09845 48.3467 5.09845Z" fill="#423E52"/>
<path d="M46.5443 3.2958H39.6962C39.2982 3.2958 38.9763 2.97386 38.9763 2.57586C38.9763 2.17757 39.2982 1.85415 39.6962 1.85415H46.5443C46.9426 1.85415 47.2646 2.17757 47.2646 2.57586C47.2646 2.97386 46.9426 3.2958 46.5443 3.2958Z" fill="#655E7C"/>
<path d="M35.7326 2.57585C35.7326 3.04013 35.3559 3.41652 34.8919 3.41652C34.4261 3.41652 34.0497 3.04013 34.0497 2.57585C34.0497 2.11157 34.4261 1.73489 34.8919 1.73489C35.3559 1.73489 35.7326 2.11157 35.7326 2.57585Z" fill="#655E7C"/>
<path d="M50.5642 46.1988H44.8027V44.0902H50.5642V46.1988Z" fill="#423E52"/>
<path d="M23.538 41.4611H32.4758V32.5221H23.538V41.4611ZM33.7982 42.782H22.2173V31.1997H33.7982V42.782Z" fill="#423E52"/>
<path d="M30.6608 39.6442H25.3534V34.3375H30.6608V39.6442Z" fill="#423E52"/>
<path d="M23.538 66.7619H32.4758V57.8229H23.538V66.7619ZM33.7982 68.0843H22.2173V56.502H33.7982V68.0843Z" fill="#423E52"/>
<path d="M30.6608 64.9465H25.3534V59.6383H30.6608V64.9465Z" fill="#423E52"/>
<path d="M48.8368 41.4611H57.7746V32.5221H48.8368V41.4611ZM59.0952 42.782H47.5146V31.1997H59.0952V42.782Z" fill="#423E52"/>
<path d="M55.9595 39.6442H50.6519V34.3375H55.9595V39.6442Z" fill="#423E52"/>
<path d="M44.521 33.6877H42.4127V31.579H44.521V33.6877Z" fill="#423E52"/>
<path d="M59.2778 51.5399H57.171V45.4958H59.2778V51.5399Z" fill="#423E52"/>
<path d="M37.9158 58.8491H35.8072V56.7405H37.9158V58.8491Z" fill="#423E52"/>
<path d="M54.3599 51.9613H52.2515V49.4313H54.3599V51.9613Z" fill="#423E52"/>
<path d="M50.5642 55.8968H48.4559V53.3669H50.5642V55.8968Z" fill="#423E52"/>
<path d="M55.0626 66.7202H52.9543V64.6116H55.0626V66.7202Z" fill="#423E52"/>
<path d="M59.2778 68.2669H57.171V66.1583H59.2778V68.2669Z" fill="#423E52"/>
<path d="M36.9324 36.4994V34.3907H39.0396V36.4994H36.9324Z" fill="#423E52"/>
<path d="M34.2607 54.2108V46.6199H36.3694V54.2108H34.2607Z" fill="#423E52"/>
<path d="M30.0456 52.1021V46.6199H32.1539V52.1021H30.0456Z" fill="#423E52"/>
<path d="M37.3536 68.2669V61.3788H39.4622V68.2669H37.3536Z" fill="#423E52"/>
<path d="M26.3908 54.491V49.9935H28.4991V54.491H26.3908Z" fill="#423E52"/>
<path d="M44.8027 39.3107H39.0396V37.2021H44.8027V39.3107Z" fill="#423E52"/>
<path d="M45.7857 62.6438H36.3694V60.5352H45.7857V62.6438Z" fill="#423E52"/>
<path d="M44.8027 56.3194H39.0396V54.2108H44.8027V56.3194Z" fill="#423E52"/>
<path d="M41.2888 68.2669H35.5269V66.1583H41.2888V68.2669Z" fill="#423E52"/>
<path d="M54.9218 59.2702H50.7051V57.1615H54.9218V59.2702Z" fill="#423E52"/>
<path d="M59.2778 53.3669H46.4885V51.2582H59.2778V53.3669Z" fill="#423E52"/>
<path d="M41.1479 42.6844H35.386V40.5757H41.1479V42.6844Z" fill="#423E52"/>
<path d="M32.1539 52.1022H26.3908V49.9935H32.1539V52.1022Z" fill="#423E52"/>
<path d="M50.5643 62.6438V57.1615H52.6726V62.6438H50.5643Z" fill="#423E52"/>
<path d="M57.171 64.1905V53.3669H59.2778V64.1905H57.171Z" fill="#423E52"/>
<path d="M46.911 65.0326V60.5352H49.0193V65.0326H46.911Z" fill="#423E52"/>
<path d="M52.6726 62.6438H46.911V60.5352H52.6726V62.6438Z" fill="#423E52"/>
<path d="M39.4621 46.6199H24.705V44.5113H39.4621V46.6199Z" fill="#423E52"/>
<path d="M41.1479 50.4146H39.0396V31.579H41.1479V50.4146Z" fill="#423E52"/>
<path d="M46.911 68.2669H44.8027V45.4958H46.911V68.2669Z" fill="#423E52"/>
</svg>
