<svg width="100" height="97" viewBox="0 0 100 97" fill="none" xmlns="http://www.w3.org/2000/svg">
<path d="M10.3431 84.8844C10.116 84.4232 9.75739 84.4232 9.53027 84.8844L4.37545 95.7728C4.28006 95.9851 4.37545 96.1316 4.595 96.1316H7.23843C7.39954 96.1316 7.524 96.0438 7.58245 95.89L7.94858 94.9454H11.9248L12.2909 95.89C12.3493 96.0438 12.4738 96.1316 12.6349 96.1316H15.2783C15.4982 96.1316 15.5933 95.9851 15.4982 95.7728L10.3431 84.8844ZM9.94031 89.8709L11.046 92.6975H8.82739L9.94031 89.8709Z" fill="#211911"/>
<path d="M24.3159 96.1316C27.6401 96.1316 28.4384 94.44 28.4384 92.9682C28.4384 91.782 27.8817 90.8229 26.3954 90.3396C27.34 89.8636 27.9699 88.9923 27.9699 87.7474C27.9699 86.1878 27.0765 84.8844 24.2426 84.8844H19.8639C19.6662 84.8844 19.5635 84.987 19.5635 85.1845V95.8315C19.5635 96.0289 19.6662 96.1316 19.8639 96.1316H24.3159ZM22.5585 87.4327H24.1914C25.0481 87.4327 25.3337 87.8061 25.3337 88.3333C25.3337 88.8457 25.0481 89.2485 24.1914 89.2485H22.5585V87.4327ZM22.5585 91.4964H24.2571C25.136 91.4964 25.4361 91.9504 25.4361 92.5509C25.4361 93.1293 25.136 93.5833 24.2571 93.5833H22.5585V91.4964Z" fill="#211911"/>
<path d="M36.4438 96.4317C38.5745 96.4317 40.8518 95.6044 40.8518 92.9831C40.8518 90.8962 39.3946 89.9953 38.0619 89.3803C36.7294 88.7652 35.6749 88.4357 35.6749 87.7622C35.6749 87.2568 36.1728 87.0884 36.8611 87.0884C37.5346 87.0884 38.3913 87.2568 39.1236 87.5057C39.3068 87.5717 39.4385 87.4912 39.4973 87.3155L40.039 85.4701C40.0975 85.2726 40.039 85.1554 39.8486 85.0967C38.8235 84.7817 37.6227 84.5843 36.7585 84.5843C34.6571 84.5843 32.6287 85.514 32.6287 87.9745C32.6287 89.7318 33.7565 90.6107 35.0599 91.2842C36.3778 91.9652 37.7911 92.368 37.7911 93.1148C37.7911 93.6859 37.2345 93.8982 36.4583 93.8982C35.6455 93.8982 34.5693 93.6714 33.6099 93.3564C33.427 93.2977 33.295 93.3419 33.2292 93.5394L32.5848 95.502C32.5264 95.6995 32.5994 95.8167 32.7971 95.8754C34.1592 96.2633 35.3306 96.4317 36.4438 96.4317Z" fill="#211911"/>
<path d="M52.5918 96.1316C52.7896 96.1316 52.8922 96.0289 52.8922 95.8315V93.8837C52.8922 93.6859 52.7896 93.5833 52.5918 93.5833H48.2865V92.2653H52.0062C52.2039 92.2653 52.3063 92.1554 52.3063 91.9652V90.164C52.3063 89.9662 52.2039 89.8636 52.0062 89.8636H48.2865V87.4327H52.5918C52.7896 87.4327 52.8922 87.3301 52.8922 87.1323V85.1845C52.8922 84.987 52.7896 84.8844 52.5918 84.8844H45.5918C45.3941 84.8844 45.2914 84.987 45.2914 85.1845V95.8315C45.2914 96.0289 45.3941 96.1316 45.5918 96.1316H52.5918Z" fill="#211911"/>
<path d="M60.1803 96.1316C60.378 96.1316 60.4807 96.029 60.4807 95.8315V90.4641L66.7045 96.1316C67.1733 96.5638 67.51 96.3733 67.51 95.8606V85.1845C67.51 84.9871 67.4077 84.8844 67.2099 84.8844H64.9181C64.7203 84.8844 64.6177 84.9871 64.6177 85.1845V90.3614L58.3206 84.8111C57.903 84.445 57.5883 84.6282 57.5883 85.1406V95.8315C57.5883 96.029 57.6907 96.1316 57.8884 96.1316H60.1803Z" fill="#211911"/>
<path d="M78.0998 96.4317C80.2599 96.4317 81.9952 95.6189 83.0569 94.2716C83.1668 94.1399 83.1229 94.0154 82.9545 93.8982L80.9774 92.5803C80.8238 92.4704 80.6918 92.4997 80.5746 92.6536C80.0183 93.3271 79.1616 93.7298 78.0998 93.7298C76.2398 93.7298 75.0097 92.4997 75.0097 90.508C75.0097 88.5163 76.2398 87.2862 78.0998 87.2862C79.1616 87.2862 80.0183 87.6889 80.5746 88.3624C80.6918 88.5163 80.8238 88.5456 80.9774 88.4357L82.9545 87.1178C83.1229 87.0006 83.1523 86.8616 83.0278 86.715C81.9513 85.3823 80.2233 84.5843 78.0998 84.5843C74.4386 84.5843 72.0074 86.8907 72.0074 90.508C72.0074 94.1253 74.4386 96.4317 78.0998 96.4317Z" fill="#211911"/>
<path d="M94.7228 96.1316C94.9206 96.1316 95.0232 96.0289 95.0232 95.8315V93.8837C95.0232 93.6859 94.9206 93.5833 94.7228 93.5833H90.4174V92.2653H94.1371C94.3349 92.2653 94.4372 92.1554 94.4372 91.9652V90.164C94.4372 89.9662 94.3349 89.8636 94.1371 89.8636H90.4174V87.4327H94.7228C94.9206 87.4327 95.0232 87.3301 95.0232 87.1323V85.1845C95.0232 84.987 94.9206 84.8844 94.7228 84.8844H87.7228C87.5251 84.8844 87.4224 84.987 87.4224 85.1845V95.8315C87.4224 96.0289 87.5251 96.1316 87.7228 96.1316H94.7228Z" fill="#211911"/>
<mask id="mask0_27_1760" style="mask-type:luminance" maskUnits="userSpaceOnUse" x="0" y="0" width="100" height="76">
<path d="M0 0H100V75.1535H0V0Z" fill="white"/>
</mask>
<g mask="url(#mask0_27_1760)">
<path fill-rule="evenodd" clip-rule="evenodd" d="M51.5861 0C72.3316 0 89.1442 16.819 89.1442 37.5724C89.1442 39.9934 88.9151 42.3594 88.4748 44.6521H31.7389C34.6449 52.8138 42.428 58.6465 51.5861 58.6465C57.6915 58.6465 63.1918 56.0511 67.0418 51.8876H89.2265C90.1068 49.916 92.0776 48.5404 94.3694 48.5404C97.4773 48.5404 99.989 51.0623 99.989 54.162C99.989 57.271 97.4773 59.7836 94.3694 59.7836C92.0776 59.7836 90.1068 58.4081 89.2265 56.4364H75.1733C74.7057 55.1798 73.4957 54.2905 72.0838 54.2905C70.2506 54.2905 68.7744 55.767 68.7744 57.5918C68.7744 59.4169 70.2506 60.9023 72.0838 60.9023C73.4957 60.9023 74.7057 60.0037 75.1733 58.7474H82.6171C75.8518 68.6517 64.4752 75.1535 51.5861 75.1535C30.8406 75.1535 14.0189 58.3255 14.0189 37.5724C14.0189 35.4722 14.1928 33.418 14.5322 31.4096H43.693C45.1049 34.3535 48.1115 36.3801 51.5861 36.3801C56.4172 36.3801 60.3315 32.4641 60.3315 27.6312C60.3315 22.8076 56.4172 18.8916 51.5861 18.8916C48.1115 18.8916 45.1049 20.9182 43.693 23.8621H12.9461C11.9012 26.2281 9.52681 27.888 6.76735 27.888C3.03632 27.888 0.0113525 24.8619 0.0113525 21.1201C0.0113525 17.3876 3.03632 14.3614 6.76735 14.3614C9.52681 14.3614 11.9012 16.0214 12.9461 18.3874H27.2011C27.7237 20.2948 29.4656 21.6979 31.5373 21.6979C34.0217 21.6979 36.0291 19.6803 36.0291 17.1951C36.0291 14.7098 34.0217 12.7015 31.5373 12.7015C29.4656 12.7015 27.7237 14.0954 27.2011 16.003H20.8299C27.6228 6.32794 38.8619 0 51.5861 0Z" fill="#FF7A00"/>
</g>
</svg>
